<svg  fill="none" xmlns="http://www.w3.org/2000/svg">
  <symbol viewBox="0 0 129 41" fill="none" id="logo-icon">
    <g>
    <path d="M6.9875 0.922503C5.805 1.435 3.87 2.87 2.6875 4.1C0.752498 6.15 0.537498 7.79 0.537498 20.6025C0.537498 34.7475 0.537498 34.85 3.5475 37.6175L6.45 40.4875H64.5H122.55L125.453 37.6175C128.463 34.85 128.463 34.7475 128.463 20.6025C128.463 9.5325 128.14 6.0475 126.85 4.6125C122.98 0.102503 121.153 3.40492e-06 63.7475 0.102503C33.755 0.102503 8.17 0.512503 6.9875 0.922503ZM107.285 20.8075L107.608 30.75L64.8225 30.545L22.0375 30.2375L21.715 20.8075L21.3925 11.275L58.8025 10.9675C79.335 10.865 98.685 10.66 101.588 10.7625H106.963L107.285 20.8075Z" fill="#4D5D5A"/>
    <path d="M25.4775 13.94C25.0475 14.35 24.725 17.5275 24.725 21.115C24.725 26.65 25.0475 27.47 26.9825 27.9825C28.165 28.29 29.885 28.29 30.745 27.9825C32.465 27.3675 32.7875 23.575 31.175 23.575C30.6375 23.575 30.1 23.985 30.1 24.6C30.1 25.1125 29.3475 25.625 28.4875 25.625C27.52 25.625 26.875 24.7025 26.875 23.2675C26.875 19.475 28.165 16.4 29.5625 16.4C30.4225 16.4 31.2825 17.425 31.4975 18.655C31.82 19.9875 31.9275 19.3725 31.9275 17.425C31.7125 14.35 31.2825 13.8375 29.025 13.53C27.52 13.325 25.9075 13.53 25.4775 13.94Z" fill="#4D5D5A"/>
    <path d="M33.97 20.6025C33.11 28.085 33.755 31.0575 35.045 26.24C35.7975 23.0625 37.625 22.6525 37.625 25.625C37.625 26.7525 38.3775 27.675 39.2375 27.675C40.9575 27.675 41.3875 22.4475 40.205 16.5025C39.6675 14.0425 38.915 13.325 37.0875 13.325C34.9375 13.325 34.615 13.94 33.97 20.6025ZM37.625 18.9625C37.625 20.3975 37.195 21.525 36.55 21.525C36.0125 21.525 35.475 20.3975 35.475 18.9625C35.475 17.5275 36.0125 16.4 36.55 16.4C37.195 16.4 37.625 17.5275 37.625 18.9625Z" fill="#4D5D5A"/>
    <path d="M42.57 15.58C41.6025 19.27 41.8175 27.47 43 28.1875C43.645 28.5975 44.075 26.7525 44.1825 23.37L44.29 17.9375L45.365 23.37C46.01 26.7525 46.87 28.7 47.6225 28.3925C49.235 27.88 49.9875 13.325 48.375 13.325C47.8375 13.325 47.1925 15.4775 47.1925 18.1425L47.085 23.0625L46.01 18.1425C44.8275 12.915 43.645 11.9925 42.57 15.58Z" fill="#4D5D5A"/>
    <path d="M52.46 20.09C52.1375 26.3425 52.3525 27.06 54.5025 27.9825C58.695 29.725 60.3075 27.3675 59.985 20.09C59.6625 13.94 59.6625 13.8375 56.2225 13.53L52.89 13.2225L52.46 20.09ZM57.5125 21.2175C56.6525 25.7275 56.4375 26.035 54.9325 25.1125C54.2875 24.805 53.75 22.8575 53.75 20.91C53.75 18.04 54.18 17.425 56.0075 17.425C58.05 17.425 58.265 17.835 57.5125 21.2175Z" fill="#4D5D5A"/>
    <path d="M62.35 20.5V27.675H65.575C67.4025 27.675 68.8 27.1625 68.8 26.65C68.8 26.035 67.8325 25.625 66.65 25.625C63.9625 25.625 63.7475 21.8325 66.435 21.2175C68.155 20.8075 68.155 20.705 66.435 20.6025C63.7475 20.5 63.9625 17.425 66.65 17.425C68.0475 17.425 68.8 16.7075 68.8 15.375C68.8 13.735 68.0475 13.325 65.575 13.325H62.35V20.5Z" fill="#4D5D5A"/>
    <path d="M75.25 14.35C75.25 14.8625 75.7875 15.375 76.325 15.375C76.97 15.375 77.4 18.1425 77.4 21.525C77.4 26.3425 77.7225 27.675 79.0125 27.675C80.195 27.675 80.625 26.445 80.625 22.755C80.625 20.09 80.9475 16.9125 81.27 15.58C81.915 13.6325 81.5925 13.325 78.5825 13.325C76.755 13.325 75.25 13.735 75.25 14.35Z" fill="#4D5D5A"/>
    <path d="M83.85 14.35C83.85 14.8625 84.3875 15.375 84.925 15.375C85.57 15.375 86 14.8625 86 14.35C86 13.735 85.57 13.325 84.925 13.325C84.3875 13.325 83.85 13.735 83.85 14.35Z" fill="#4D5D5A"/>
    <path d="M89.225 20.3975C89.225 24.6 89.655 27.675 90.3 27.675C90.945 27.675 91.375 26.5475 91.375 25.215C91.375 23.575 92.1275 22.55 93.6325 22.2425C95.46 21.73 95.7825 21.0125 95.46 17.7325C95.1375 14.35 94.7075 13.8375 92.235 13.53L89.225 13.2225V20.3975ZM93.525 18.9625C93.525 20.6025 92.88 21.525 91.9125 21.525C90.945 21.525 90.3 20.6025 90.3 18.9625C90.3 17.3225 90.945 16.4 91.9125 16.4C92.88 16.4 93.525 17.3225 93.525 18.9625Z" fill="#4D5D5A"/>
    <path d="M97.825 17.015C97.825 19.7825 98.3625 20.8075 99.975 21.2175C101.158 21.525 102.125 22.6525 102.125 23.6775C102.125 26.1375 101.158 26.1375 99.33 23.78C98.04 22.2425 97.9325 22.345 97.825 24.805C97.825 27.265 98.255 27.675 101.05 27.675C104.06 27.675 104.275 27.3675 104.275 23.985C104.275 21.2175 103.738 20.1925 102.125 19.7825C99.975 19.27 99.0075 15.375 101.05 15.375C101.695 15.375 102.125 15.785 102.125 16.4C102.125 16.9125 102.663 17.425 103.2 17.425C103.845 17.425 104.275 16.5025 104.275 15.375C104.275 13.735 103.523 13.325 101.05 13.325C98.04 13.325 97.825 13.6325 97.825 17.015Z" fill="#4D5D5A"/>
    <path d="M83.85 22.55C83.85 27.265 85.14 29.315 86.215 26.3425C86.9675 24.395 85.8925 17.425 84.8175 17.425C84.28 17.425 83.85 19.68 83.85 22.55Z" fill="#4D5D5A"/>
    </g>
  </symbol>

  <symbol viewBox="0 0 48 48" id="play-icon">
    <path d="M24 44C35.0457 44 44 35.0457 44 24C44 12.9543 35.0457 4 24 4C12.9543 4 4 12.9543 4 24C4 35.0457 12.9543 44 24 44Z"/>
    <path d="M20 16L32 24L20 32V16Z" fill="currentColor"/>
  </symbol>

  <symbol viewBox="0 0 33 18" id="burger-icon">
    <line x1="0" y1="2" x2="33" y2="2" stroke="#3c3c3c" stroke-width="3"/>
    <line x1="0" y1="9" x2="33" y2="9" stroke="#3c3c3c" stroke-width="3"/>
    <line x1="0" y1="16" x2="33" y2="16" stroke="#3c3c3c" stroke-width="3"/>
  </symbol>

  <symbol viewBox="0 0 25 22" id="cross-icon">
    <line x1="0" y1="0" x2="25" y2="22" stroke="#3c3c3c" stroke-width="3"/>
    <line x1="0" y1="22" x2="25" y2="0" stroke="#3c3c3c" stroke-width="3"/>
  </symbol>
</svg>

